<svg width="18" height="18" viewBox="0 0 18 18" fill="none" xmlns="http://www.w3.org/2000/svg">
<path d="M8.13733 1.47145C8.52367 0.812467 9.47633 0.812466 9.86267 1.47145L12.0234 5.15701C12.1644 5.3975 12.3994 5.56821 12.6717 5.62799L16.8446 6.54408C17.5907 6.70788 17.8851 7.61391 17.3777 8.18498L14.5402 11.3789C14.3551 11.5873 14.2653 11.8635 14.2926 12.1409L14.7109 16.3927C14.7857 17.1529 14.0149 17.7129 13.315 17.4068L9.40064 15.6952C9.14522 15.5835 8.85478 15.5835 8.59936 15.6952L4.68496 17.4068C3.98506 17.7128 3.21435 17.1529 3.28913 16.3927L3.70736 12.1409C3.73465 11.8635 3.6449 11.5873 3.45975 11.3789L0.622286 8.18498C0.114944 7.61391 0.40933 6.70788 1.15545 6.54408L5.32833 5.62799C5.60062 5.56821 5.83559 5.3975 5.97658 5.15701L8.13733 1.47145Z" fill="currentColor"/>
</svg>
