<svg xmlns="http://www.w3.org/2000/svg" xmlns:xlink="http://www.w3.org/1999/xlink"><symbol fill="currentColor" viewBox="0 0 150 151" id="about-us-icon-logo"><path d="M99.999 150.5v-25c13.833 0 25-11.166 25-25h24.999c0 27.667-22.416 50-50 50Z"/><path d="M100 150.5v-25c-13.834 0-25-11.166-25-25H50c0 27.667 22.416 50 50 50ZM0 100.498h25c0 13.833 11.166 25 25 25v24.999c-27.584 0-50-22.333-50-49.999Z"/><path d="M0 100.499h25c0-13.833 11.166-25 25-25V50.5c-27.584 0-50 22.416-50 49.999ZM50 .5v25c-13.834 0-25 11.167-25 25H0C0 22.917 22.416.5 50 .5Z"/><path d="M50 .5v25c13.833 0 25 11.167 25 25h24.999c0-27.583-22.416-50-50-50ZM149.998 50.5h-25c0-13.833-11.166-25-25-25V.5c27.584 0 50 22.417 50 50Z"/><path d="M149.998 50.5h-25c0 13.833-11.166 25-25 25v24.999c27.584 0 50-22.333 50-50Z"/></symbol><symbol fill="currentColor" viewBox="0 0 25 25" id="arrow-top-right"><path fill-rule="evenodd" clip-rule="evenodd" d="M8.75 4.25H20a.75.75 0 0 1 .75.75v11.25a.75.75 0 0 1-1.5 0V6.81L5.53 20.53a.75.75 0 0 1-1.06-1.06L18.19 5.75H8.75a.75.75 0 0 1 0-1.5Z"/></symbol><symbol fill="currentColor" viewBox="0 0 18 19" id="coment-icon"><path d="M5.486 16.689c1.06.52 2.253.811 3.514.811a8 8 0 1 0-6.66-3.566m3.146 2.755L1 17.5l1.34-3.566m3.146 2.755.006-.001M2.34 13.934l.002-.003" stroke="currentColor" stroke-width="1.5" stroke-linecap="round" stroke-linejoin="round"/></symbol><symbol fill="currentColor" viewBox="0 0 24 25" id="eye-icon"><path d="M21.603 11.328c.255.321.397.739.397 1.172 0 .433-.142.851-.397 1.172C19.984 15.65 16.3 19.5 12 19.5s-7.984-3.85-9.603-5.828A1.89 1.89 0 0 1 2 12.5c0-.433.142-.85.397-1.172C4.016 9.35 7.7 5.5 12 5.5s7.985 3.85 9.603 5.828Z" stroke="currentColor" stroke-width="1.5" stroke-linecap="round" stroke-linejoin="round"/><path d="M12 15.61c1.703 0 3.083-1.392 3.083-3.11s-1.38-3.111-3.082-3.111c-1.703 0-3.083 1.393-3.083 3.11 0 1.72 1.38 3.112 3.083 3.112Z" stroke="currentColor" stroke-width="1.5" stroke-linecap="round" stroke-linejoin="round"/></symbol><symbol fill="currentColor" viewBox="0 0 20 19" id="heart-fill-icon"><path d="m9.645 18.41-.007-.003-.022-.012a9.073 9.073 0 0 1-.383-.218 25.176 25.176 0 0 1-4.244-3.17C2.688 12.86.25 9.674.25 5.75.25 2.822 2.714.5 5.688.5A5.5 5.5 0 0 1 10 2.552 5.5 5.5 0 0 1 14.313.5c2.973 0 5.437 2.322 5.437 5.25 0 3.925-2.438 7.111-4.739 9.256a25.175 25.175 0 0 1-4.244 3.17 15.247 15.247 0 0 1-.383.219l-.022.012-.007.004-.003.001a.752.752 0 0 1-.704 0l-.003-.001Z"/></symbol><symbol fill="currentColor" viewBox="0 0 22 21" id="heart-stroke-icon"><path d="m10.645 19.41-.007-.003-.022-.012a15.247 15.247 0 0 1-.383-.218 25.176 25.176 0 0 1-4.244-3.17C3.688 13.86 1.25 10.674 1.25 6.75c0-2.928 2.464-5.25 5.438-5.25A5.5 5.5 0 0 1 11 3.552 5.5 5.5 0 0 1 15.313 1.5c2.973 0 5.437 2.322 5.437 5.25 0 3.925-2.438 7.111-4.739 9.256a25.175 25.175 0 0 1-4.244 3.17 15.247 15.247 0 0 1-.383.219l-.022.012-.007.004-.003.001a.752.752 0 0 1-.704 0l-.003-.001Z" stroke="currentColor" stroke-width="1.5" stroke-linejoin="round"/></symbol><symbol fill="currentColor" viewBox="0 0 24 24" id="in-icon"><path d="M20.865 1.6H3.135A1.535 1.535 0 0 0 1.6 3.135v17.73A1.536 1.536 0 0 0 3.136 22.4h17.729a1.536 1.536 0 0 0 1.535-1.536V3.135A1.536 1.536 0 0 0 20.865 1.6ZM7.8 19.319H4.672V9.385H7.8v9.934ZM6.234 8.009a1.795 1.795 0 1 1 1.805-1.794 1.77 1.77 0 0 1-1.805 1.794Zm13.092 11.318h-3.125V13.9c0-1.6-.68-2.094-1.559-2.094-.927 0-1.837.7-1.837 2.135v5.386H9.677V9.392h3.008v1.377h.04c.302-.611 1.36-1.655 2.973-1.655 1.745 0 3.63 1.035 3.63 4.069l-.002 6.144Z"/></symbol><symbol fill="currentColor" viewBox="0 0 24 24" id="medium-icon"><path d="M13.537 12.228c0 3.77-3.03 6.828-6.768 6.828S0 15.998 0 12.228C0 8.458 3.03 5.4 6.769 5.4c3.738 0 6.768 3.057 6.768 6.828ZM20.963 12.229c0 3.549-1.516 6.427-3.385 6.427-1.869 0-3.384-2.878-3.384-6.427 0-3.55 1.515-6.428 3.384-6.428 1.87 0 3.384 2.877 3.384 6.428M24 12.228c0 3.18-.533 5.758-1.19 5.758-.658 0-1.19-2.578-1.19-5.758s.532-5.758 1.19-5.758c.657 0 1.19 2.578 1.19 5.758Z"/></symbol><symbol fill="currentColor" viewBox="0 0 57 58" id="play-icon"><path d="M28.438.563C44.142.563 56.874 13.293 56.874 29c0 15.706-12.732 28.438-28.438 28.438C12.732 57.438 0 44.706 0 29S12.732.562 28.438.562Zm-3.875 16.49c-2.188-1.214-4.875.367-4.875 2.869v18.157c0 2.502 2.688 4.083 4.875 2.868l16.341-9.078c2.25-1.25 2.25-4.487 0-5.737l-16.342-9.078Z"/></symbol><symbol fill="currentColor" viewBox="0 0 18 18" id="rating-star-icon"><path d="M8.137 1.471a1 1 0 0 1 1.726 0l2.16 3.686a1 1 0 0 0 .649.471l4.173.916a1 1 0 0 1 .533 1.641l-2.838 3.194a1 1 0 0 0-.247.762l.418 4.252a1 1 0 0 1-1.396 1.014l-3.914-1.712a1 1 0 0 0-.802 0l-3.914 1.712a1 1 0 0 1-1.396-1.014l.418-4.252a1 1 0 0 0-.247-.762L.622 8.185a1 1 0 0 1 .533-1.64l4.173-.917a1 1 0 0 0 .649-.471l2.16-3.686Z"/></symbol><symbol fill="currentColor" viewBox="0 0 20 19" id="share-icon"><path d="M8.038 11.462 2.172 8.795c-.807-.367-.773-1.525.055-1.844L16.9 1.308c.809-.311 1.603.483 1.292 1.292L12.55 17.273c-.319.828-1.477.863-1.844.055l-2.667-5.866Zm0 0 4.385-4.385" stroke="currentColor" stroke-width="1.5" stroke-linecap="round" stroke-linejoin="round"/></symbol><symbol fill="currentColor" viewBox="0 0 300 300.251" id="x-icon"><path d="M174.434 130.476 269.965 21.73h-22.63l-82.984 94.402-66.23-94.402H21.713l100.175 142.766L21.713 278.52h22.63l87.577-99.713 69.96 99.713h76.407M52.51 38.443h34.766l160.042 224.185h-34.774"/></symbol></svg>